<?xml version="1.0" encoding="iso-8859-1"?>
<!-- Generator: Adobe Illustrator 16.0.0, SVG Export Plug-In . SVG Version: 6.00 Build 0)  -->
<!DOCTYPE svg PUBLIC "-//W3C//DTD SVG 1.1//EN" "http://www.w3.org/Graphics/SVG/1.1/DTD/svg11.dtd">
<svg version="1.1" id="Capa_1" xmlns="http://www.w3.org/2000/svg" xmlns:xlink="http://www.w3.org/1999/xlink" x="0px" y="0px"
	 width="475.048px" height="475.048px" fill="#ccc" viewBox="0 0 475.048 475.048" style="enable-background:new 0 0 475.048 475.048;"
	 xml:space="preserve">
<g>
	<g>
		<path d="M374.464,68.389H261.021V23.498c0-12.957-10.543-23.498-23.5-23.498c-12.955,0-23.494,10.541-23.494,23.498v44.891
			H100.585c-24.371,0-44.199,19.828-44.199,44.199v197.408c0,24.371,19.828,44.199,44.199,44.199h113.442v73.85h-68.924
			c-12.952,0-23.49,10.543-23.49,23.502c0,12.958,10.538,23.501,23.49,23.501h184.835c12.957,0,23.5-10.542,23.5-23.501
			s-10.543-23.502-23.5-23.502h-68.918v-73.85h113.443c24.369,0,44.197-19.828,44.197-44.199V112.588
			C418.664,88.217,398.835,68.389,374.464,68.389z M226.027,23.498c0-6.34,5.156-11.498,11.494-11.498
			c6.341,0,11.5,5.158,11.5,11.498v43.808h-22.994V23.498z M329.939,440.045c6.342,0,11.5,5.16,11.5,11.502
			c0,6.343-5.158,11.501-11.5,11.501H145.104c-6.336,0-11.49-5.158-11.49-11.501c0-6.342,5.154-11.502,11.49-11.502h68.924h46.994
			H329.939z M226.027,428.045v-72.873h22.994v72.873H226.027z M406.664,309.996c0,17.754-14.443,32.199-32.199,32.199H100.585
			c-17.755,0-32.199-14.444-32.199-32.199V112.588c0-17.754,14.444-32.199,32.199-32.199h273.879
			c17.756,0,32.199,14.444,32.199,32.199V309.996z"/>
		<path d="M282.572,167.458H120.925c-3.313,0-6,2.687-6,6s2.687,6,6,6h161.646c3.312,0,6-2.687,6-6S285.885,167.458,282.572,167.458
			z"/>
		<path d="M198.58,231.632h-77.653c-3.313,0-6,2.687-6,6c0,3.312,2.687,6,6,6h77.653c3.313,0,6-2.688,6-6
			C204.58,234.319,201.893,231.632,198.58,231.632z"/>
	</g>
</g>
<g>
</g>
<g>
</g>
<g>
</g>
<g>
</g>
<g>
</g>
<g>
</g>
<g>
</g>
<g>
</g>
<g>
</g>
<g>
</g>
<g>
</g>
<g>
</g>
<g>
</g>
<g>
</g>
<g>
</g>
</svg>
